<?xml version="1.0" encoding="UTF-8" standalone="no"?>
<!-- Created with Inkscape (http://www.inkscape.org/) -->

<svg
   xmlns:dc="http://purl.org/dc/elements/1.1/"
   xmlns:cc="http://creativecommons.org/ns#"
   xmlns:rdf="http://www.w3.org/1999/02/22-rdf-syntax-ns#"
   xmlns:svg="http://www.w3.org/2000/svg"
   xmlns="http://www.w3.org/2000/svg"
   xmlns:sodipodi="http://sodipodi.sourceforge.net/DTD/sodipodi-0.dtd"
   xmlns:inkscape="http://www.inkscape.org/namespaces/inkscape"
   width="43mm"
   height="43mm"
   viewBox="0 0 43 43"
   version="1.1"
   id="svg3723"
   inkscape:version="0.92.2 (5c3e80d, 2017-08-06)"
   sodipodi:docname="logo.svg">
  <defs
     id="defs3717" />
  <sodipodi:namedview
     id="base"
     pagecolor="#ffffff"
     bordercolor="#666666"
     borderopacity="1.0"
     inkscape:pageopacity="0.0"
     inkscape:pageshadow="2"
     inkscape:zoom="1.979899"
     inkscape:cx="74.227356"
     inkscape:cy="40.016071"
     inkscape:document-units="mm"
     inkscape:current-layer="layer1"
     showgrid="false"
     fit-margin-top="0"
     fit-margin-left="0"
     fit-margin-right="0"
     fit-margin-bottom="0"
     inkscape:window-width="1920"
     inkscape:window-height="1001"
     inkscape:window-x="-9"
     inkscape:window-y="-9"
     inkscape:window-maximized="1" />
  <metadata
     id="metadata3720">
    <rdf:RDF>
      <cc:Work
         rdf:about="">
        <dc:format>image/svg+xml</dc:format>
        <dc:type
           rdf:resource="http://purl.org/dc/dcmitype/StillImage" />
        <dc:title></dc:title>
      </cc:Work>
    </rdf:RDF>
  </metadata>
  <g
     inkscape:label="Layer 1"
     inkscape:groupmode="layer"
     id="layer1"
     transform="translate(-32.883515,-112.80751)">
    <g
       transform="matrix(0.26458333,0,0,0.26458333,-67.64097,16.332902)"
       id="g8"
       inkscape:export-xdpi="183.27"
       inkscape:export-ydpi="183.27">
      <path
         style="fill:#000000"
         inkscape:connector-curvature="0"
         d="m 466.769,526.719 c 0,0 0,0 0,0 1.224,-0.527 2.354,-1.38 3.671,-1.58 0.711,-0.108 1.323,0.612 2.034,0.713 1.018,0.145 2.091,0.28 3.085,0.014 2.387,-0.641 4.512,-2.086 6.907,-2.695 0.393,-0.1 0.612,0.593 1.008,0.681 0.677,0.151 1.427,0.242 2.08,0.01 2.551,-0.907 4.984,-2.129 7.388,-3.374 1.907,-0.989 3.533,-2.511 5.524,-3.317 0.385,-0.156 0.661,0.759 1.063,0.652 1.311,-0.351 2.561,-1.029 3.603,-1.899 1.332,-1.113 2.089,-2.805 3.396,-3.947 1.386,-1.212 3.194,-1.868 4.606,-3.051 0.718,-0.602 0.946,-1.685 1.703,-2.236 2.949,-2.145 6.49,-3.437 9.295,-5.766 2.005,-1.665 3.173,-4.145 4.942,-6.058 0.636,-0.688 1.66,-0.965 2.236,-1.703 1.191,-1.527 2.154,-3.235 2.982,-4.985 1.14,-2.41 2.111,-4.907 2.902,-7.453 0.729,-2.346 1.356,-4.745 1.643,-7.185 0.047,-0.404 -0.555,-0.626 -0.68,-1.013 -0.108,-0.333 -0.296,-0.885 0.013,-1.052 0.401,-0.218 0.884,0.419 1.331,0.324 0.422,-0.089 0.827,-0.424 1.002,-0.819 0.346,-0.783 0.775,-1.721 0.479,-2.525 -0.364,-0.986 -1.856,-1.245 -2.234,-2.226 -0.94,-2.442 -1.318,-5.086 -1.586,-7.689 -0.042,-0.406 0.608,-0.613 0.69,-1.014 0.205,-0.989 0.147,-2.016 0.147,-3.026 0,-0.677 0.13,-1.409 -0.148,-2.026 -0.351,-0.782 -1.468,-1.136 -1.65,-1.974 -0.153,-0.7 0.704,-1.291 0.784,-2.004 0.185,-1.653 0.329,-3.36 10e-4,-4.99 -0.288,-1.428 -1.486,-2.557 -1.809,-3.977 -0.089,-0.393 0.571,-0.614 0.675,-1.003 0.175,-0.652 0.26,-1.357 0.133,-2.019 -0.376,-1.967 -0.929,-3.905 -1.625,-5.782 -1.463,-3.945 -3.172,-7.796 -4.843,-11.657 -0.477,-1.102 -0.927,-2.233 -1.599,-3.228 -0.419,-0.621 -1.314,-0.87 -1.629,-1.55 -0.137,-0.296 0.624,-0.507 0.533,-0.82 -0.284,-0.985 -0.971,-1.809 -1.539,-2.662 -0.806,-1.209 -1.304,-2.819 -2.579,-3.516 -0.585,-0.32 -0.967,1.565 -1.557,1.255 -0.612,-0.321 -0.147,-1.398 10e-4,-2.073 0.086,-0.393 0.834,-0.633 0.675,-1.003 -0.879,-2.044 -2.196,-3.886 -3.54,-5.661 -0.336,-0.443 -1.023,-0.49 -1.417,-0.884 -1.388,-1.389 -2.371,-3.181 -3.891,-4.426 -0.329,-0.269 -0.901,0.438 -1.259,0.208 -0.712,-0.458 -0.913,-1.455 -1.549,-2.015 -0.782,-0.688 -1.839,-1.004 -2.639,-1.67 -1.204,-1.003 -2.098,-2.35 -3.338,-3.308 -1.683,-1.301 -3.701,-2.124 -5.38,-3.43 -1.338,-1.04 -2.33,-2.47 -3.62,-3.57 -1.486,-1.267 -2.976,-2.573 -4.687,-3.513 -0.274,-0.15 -0.534,0.688 -0.787,0.506 -0.721,-0.519 -1.245,-1.339 -1.537,-2.178 -0.1,-0.289 0.768,-0.587 0.516,-0.76 -1.247,-0.857 -2.883,-0.989 -4.185,-1.761 -1.544,-0.915 -2.739,-2.348 -4.286,-3.259 -1.792,-1.055 -3.662,-2.061 -5.669,-2.606 -0.621,-0.169 -1.226,0.74 -1.846,0.567 -0.882,-0.248 -1.277,-1.471 -2.166,-1.693 -1.316,-0.33 -2.728,-0.078 -4.069,0.129 -0.386,0.06 -0.583,0.652 -0.974,0.652 -0.391,0 -0.591,-0.576 -0.974,-0.652 -0.989,-0.194 -2.041,-0.373 -3.02,-0.133 -5.314,1.304 -10.599,2.801 -15.72,4.73 -0.959,0.361 -1.349,1.64 -2.285,2.055 -0.356,0.158 -0.612,-0.598 -1.001,-0.598 -0.389,0 -0.611,0.598 -1,0.598 -0.389,0 -0.632,-0.721 -1.001,-0.598 -0.809,0.27 -1.186,1.337 -1.999,1.598 -0.381,0.123 -0.64,-0.719 -1.029,-0.622 -0.995,0.247 -1.793,0.997 -2.663,1.54 -1.018,0.636 -2.064,1.243 -2.998,1.998 -0.626,0.505 -1.494,0.969 -1.652,1.758 -0.206,1.023 0.731,2.012 0.685,3.054 -0.027,0.586 -0.395,1.203 -0.89,1.518 -4.901,3.112 -10.43,5.224 -15.119,8.647 -1.658,1.211 -2.16,3.528 -3.582,5.008 -0.209,0.217 -0.458,-0.449 -0.755,-0.498 -0.184,-0.029 -0.338,0.169 -0.472,0.298 -1.869,1.811 -3.764,3.6 -5.526,5.515 -0.283,0.309 -0.277,0.822 -0.573,1.119 -0.984,0.986 -2.284,1.635 -3.211,2.676 -0.68,0.765 -1.252,1.676 -1.537,2.66 -0.09,0.311 0.703,0.54 0.53,0.814 -0.451,0.719 -1.542,0.85 -2.017,1.553 -1.401,2.074 -2.63,4.293 -3.514,6.634 -0.141,0.376 0.678,0.634 0.621,1.032 -0.048,0.332 -0.666,0.262 -0.847,0.545 -0.593,0.925 -1.037,1.946 -1.411,2.979 -1.367,3.778 -2.615,7.599 -3.807,11.436 -0.612,1.969 -1.204,3.952 -1.602,5.976 -0.134,0.682 -0.131,1.407 0.017,2.087 0.083,0.382 0.77,0.602 0.651,0.974 -0.259,0.813 -1.337,1.187 -1.598,1.999 -0.119,0.37 0.522,0.602 0.641,0.971 0.112,0.347 0.072,0.732 0.025,1.093 -0.501,3.916 -0.854,7.863 -1.667,11.726 -0.108,0.516 -0.807,0.715 -1.049,1.182 -0.167,0.321 -0.321,0.775 -0.122,1.077 0.74,1.128 2.128,1.766 2.769,2.954 0.185,0.343 -0.587,0.587 -0.65,0.972 -0.167,1.015 -0.226,2.079 -0.016,3.087 0.338,1.619 0.959,3.176 1.636,4.685 0.222,0.493 0.936,0.721 1.031,1.253 0.071,0.395 -0.736,0.645 -0.621,1.029 0.689,2.313 1.735,4.521 2.904,6.632 0.364,0.656 1.305,0.874 1.629,1.55 0.135,0.284 -0.656,0.515 -0.509,0.793 1.602,3.032 3.592,5.847 5.516,8.686 0.185,0.274 0.453,0.607 0.784,0.609 0.389,0.002 0.625,-0.506 1.004,-0.598 0.138,-0.034 0.343,0.134 0.324,0.275 -0.093,0.701 -0.537,1.325 -0.629,2.026 -0.025,0.185 0.172,0.337 0.299,0.474 0.903,0.969 1.949,1.808 2.785,2.835 0.664,0.815 0.981,1.888 1.692,2.662 1.115,1.214 2.701,1.957 3.731,3.244 0.195,0.244 -0.455,0.479 -0.506,0.787 -0.03,0.183 0.16,0.347 0.298,0.472 1.179,1.07 2.557,1.926 3.634,3.099 1.132,1.234 1.626,3.04 2.947,4.071 4.045,3.157 8.542,5.695 12.945,8.33 1.764,1.056 3.624,1.964 5.532,2.73 2.573,1.035 5.187,2.01 7.883,2.661 1,0.241 2.072,0.164 3.085,-0.014 0.385,-0.068 0.576,-0.565 0.945,-0.694 0.341,-0.119 0.752,-0.157 1.084,-0.014 1.03,0.441 1.788,1.514 2.891,1.718 2.311,0.428 4.706,0.294 7.05,0.123 0.715,-0.052 1.289,-0.715 2.002,-0.783 0.319,-0.03 0.501,0.593 0.811,0.515 0.522,-0.131 0.712,-0.932 1.24,-1.031 0.36,-0.068 0.542,0.696 0.902,0.628 0.527,-0.1 0.709,-1.125 1.238,-1.031 0.78,0.138 1.052,1.268 1.785,1.568 0.633,0.259 1.383,0.145 2.052,10e-4 0.382,-0.082 0.583,-0.649 0.974,-0.651 0.388,-0.002 0.593,0.555 0.971,0.641 m 3.705,-3.334 c 0,0 0,0 0,0 0.218,-0.013 0.603,-0.251 0.656,-0.039 0.112,0.444 0.125,1.306 -0.332,1.333 m -37.951,-4.993 c 0,0 0,0 0,0 -0.209,-0.323 -0.299,-0.768 -0.627,-0.969 -1.633,-1 -3.519,-1.545 -5.141,-2.563 -1.614,-1.012 -2.849,-2.581 -4.519,-3.496 -1.602,-0.878 -3.564,-0.947 -5.17,-1.816 -0.254,-0.137 0.12,-0.729 0.406,-0.762 0.386,-0.046 0.643,0.743 1.003,0.596 0.834,-0.341 1.693,-0.975 1.999,-1.824 0.247,-0.689 0.008,-1.682 -0.581,-2.118 -2.143,-1.589 -4.818,-2.299 -7.143,-3.607 -0.398,-0.224 -0.879,-0.515 -0.976,-0.96 -0.925,-4.232 -1.151,-8.593 -2.038,-12.833 -0.967,-4.624 -2.001,-9.254 -3.516,-13.728 -0.334,-0.987 -1.673,-1.435 -1.957,-2.437 -0.131,-0.462 0.774,-0.629 0.962,-1.071 1.349,-3.163 2.744,-6.336 3.615,-9.662 0.345,-1.318 0.442,-2.802 -0.015,-4.085 -0.543,-1.529 -1.709,-2.79 -2.843,-3.951 -0.371,-0.38 -0.982,-0.464 -1.511,-0.508 -1.005,-0.083 -2.036,-0.073 -3.023,0.133 -0.383,0.08 -0.555,0.692 -0.947,0.695 -0.722,0.005 -1.361,-0.85 -2.061,-0.672 -2.099,0.531 -3.837,2.074 -5.912,2.691 -0.985,0.293 -2.124,0.351 -3.082,-0.019 -0.442,-0.171 -0.416,-0.875 -0.456,-1.347 -0.114,-1.326 -0.185,-2.674 -0.001,-3.993 0.099,-0.708 0.669,-1.281 0.837,-1.977 0.159,-0.657 0.244,-1.356 0.132,-2.022 -0.122,-0.723 -0.908,-1.314 -0.816,-2.041 0.186,-1.473 0.755,-2.938 1.602,-4.158 0.208,-0.3 0.702,0.517 1.033,0.362 0.719,-0.335 1.279,-0.985 1.719,-1.645 0.159,-0.238 -0.284,-0.696 -0.048,-0.859 0.469,-0.322 1.193,0.018 1.686,-0.267 0.644,-0.373 0.872,-1.3 1.55,-1.607 0.297,-0.134 0.51,0.632 0.82,0.533 1.529,-0.488 2.788,-1.627 4.299,-2.167 2.862,-1.024 5.88,-1.557 8.767,-2.507 1.585,-0.521 3.136,-1.156 4.629,-1.901 0.285,-0.143 0.574,-0.409 0.626,-0.724 0.166,-1.002 0.503,-2.165 0,-3.049 -0.854,-1.505 -3.631,-1.849 -3.763,-3.574 -0.097,-1.259 2.178,-1.301 3.352,-1.765 0.538,-0.213 1.194,0.003 1.72,-0.239 0.699,-0.321 1.167,-1.022 1.84,-1.396 0.105,-0.059 0.196,0.278 0.294,0.208 0.544,-0.386 0.794,-1.165 1.411,-1.42 0.358,-0.149 0.744,0.538 1.098,0.379 0.723,-0.325 1.278,-0.986 1.719,-1.645 0.159,-0.236 -0.331,-0.827 -0.047,-0.852 0.701,-0.061 1.305,0.563 1.999,0.682 0.686,0.117 1.418,0.207 2.086,0.015 1.525,-0.437 3.25,-0.75 4.376,-1.867 0.489,-0.485 -0.034,-1.475 -0.464,-2.012 -0.622,-0.779 -2.145,-0.731 -2.48,-1.669 -0.209,-0.587 0.878,-0.98 1.48,-1.138 0.316,-0.083 0.523,0.661 0.822,0.531 0.621,-0.27 0.704,-1.503 1.381,-1.49 1.684,0.033 3.126,1.343 4.788,1.611 0.4,0.064 0.605,-0.672 1.01,-0.676 0.709,-0.008 1.338,0.806 2.027,0.642 0.831,-0.197 1.19,-1.329 1.999,-1.598 0.369,-0.123 0.612,0.598 1.001,0.598 0.389,0 0.612,-0.609 1,-0.598 0.391,0.01 0.596,0.551 0.974,0.652 0.654,0.174 1.349,0.146 2.026,0.146 1.01,0 2.036,0.051 3.026,-0.146 0.383,-0.077 0.583,-0.652 0.974,-0.652 0.391,0 0.591,0.576 0.974,0.652 0.99,0.194 2.022,0.261 3.022,0.132 0.712,-0.092 1.288,-0.752 2.004,-0.784 0.39,-0.017 0.591,0.575 0.974,0.652 0.99,0.197 2.016,0.146 3.026,0.146 0.677,0 1.373,0.032 2.026,-0.146 0.391,-0.107 0.615,-0.78 1.008,-0.682 2.402,0.598 4.49,2.26 6.932,2.658 0.626,0.102 1.143,-0.717 1.385,-1.303 0.261,-0.631 0.15,-1.383 -10e-4,-2.049 -0.07,-0.311 -0.335,-0.591 -0.625,-0.724 -1.527,-0.702 -3.066,-1.511 -4.731,-1.739 -2.639,-0.36 -5.335,-0.207 -7.991,10e-4 -0.714,0.056 -1.286,0.784 -2.003,0.784 -0.717,0 -1.288,-0.737 -2.004,-0.784 -3.338,-0.217 -6.708,-0.333 -10.036,0.003 -0.764,0.077 -1.193,1.207 -1.96,1.207 -0.767,0 -1.219,-1.008 -1.96,-1.206 -0.666,-0.179 -1.398,-0.043 -2.066,0.128 -0.378,0.098 -0.583,0.652 -0.974,0.652 -0.391,0 -0.596,-0.553 -0.974,-0.652 -0.654,-0.17 -1.357,-0.247 -2.022,-0.131 -0.704,0.122 -1.263,0.799 -1.977,0.827 -0.722,0.027 -1.347,-0.782 -2.061,-0.672 -1.309,0.2 -2.569,0.794 -3.657,1.547 -0.747,0.517 -1.012,1.528 -1.677,2.146 -0.153,0.142 -0.466,0.127 -0.626,-0.007 -0.298,-0.247 -0.275,-0.772 -0.586,-1.002 -1.378,-1.019 -2.788,-2.07 -4.392,-2.678 -0.374,-0.142 -0.627,0.618 -1.028,0.622 -0.388,0.005 -0.611,-0.598 -1,-0.598 -0.389,0 -0.623,0.681 -1.003,0.598 -0.361,-0.079 -0.304,-0.696 -0.576,-0.944 -0.573,-0.521 -1.251,-0.918 -1.913,-1.319 -1.879,-1.135 -5.173,-1.156 -5.707,-3.284 -0.47,-1.875 2.331,-3.118 3.78,-4.397 1.209,-1.068 2.803,-1.612 4.103,-2.566 0.855,-0.629 1.298,-2.383 2.336,-2.163 1.263,0.268 1.125,2.537 2.266,3.139 2.036,1.073 4.416,1.607 6.717,1.594 3.696,-0.022 7.274,-1.374 10.955,-1.699 0.406,-0.036 0.634,0.631 1.042,0.639 0.388,0.008 0.612,-0.608 1,-0.598 0.595,0.014 1.086,0.825 1.658,0.663 0.709,-0.202 0.877,-1.278 1.551,-1.575 0.288,-0.127 0.451,0.563 0.766,0.553 0.708,-0.022 1.317,-0.631 2.025,-0.641 0.388,-0.006 0.611,0.598 1,0.598 0.388,0 0.612,-0.608 1,-0.598 0.39,0.01 0.595,0.551 0.972,0.65 0.544,0.141 1.18,0.286 1.687,0.042 0.67,-0.323 0.833,-1.409 1.55,-1.604 0.619,-0.168 1.156,0.634 1.794,0.696 1.336,0.129 2.698,0.075 4.023,-0.132 0.386,-0.061 0.583,-0.65 0.974,-0.652 0.388,-0.002 0.601,0.523 0.971,0.641 0.346,0.112 0.735,0.097 1.091,0.022 2.351,-0.494 4.596,-1.689 6.998,-1.724 1.187,-0.017 2.784,0.463 3.192,1.577 0.364,0.992 -1.369,1.701 -1.614,2.729 -0.198,0.83 0.024,1.751 0.36,2.536 0.232,0.543 0.723,0.995 1.256,1.25 1.496,0.714 3.07,1.852 4.708,1.6 1.19,-0.183 1.42,-2.005 2.407,-2.695 0.272,-0.191 0.851,0.037 0.93,0.36 0.092,0.379 -0.509,0.627 -0.598,1.007 -0.031,0.135 0.16,0.326 0.295,0.294 0.379,-0.088 0.615,-0.602 1.004,-0.597 0.401,0.004 0.649,0.749 1.028,0.622 1.675,-0.564 3.177,-1.567 4.656,-2.534 0.633,-0.414 1.02,-1.133 1.632,-1.577 0.682,-0.495 1.455,-0.856 2.217,-1.216 2.365,-1.118 4.922,-1.858 7.158,-3.214 0.776,-0.471 1.013,-1.528 1.677,-2.147 0.152,-0.142 0.461,-0.13 0.623,0 1.412,1.14 2.495,2.672 3.98,3.716 0.459,0.322 1.21,-0.081 1.663,0.249 0.749,0.548 1.007,1.589 1.7,2.208 0.776,0.693 1.866,0.972 2.638,1.669 0.665,0.6 0.971,1.522 1.602,2.157 0.66,0.663 1.608,1.004 2.233,1.7 0.785,0.872 1.383,1.905 1.94,2.938 0.596,1.106 0.908,2.351 1.506,3.456 0.564,1.042 1.19,2.065 1.964,2.962 0.345,0.4 1.048,0.415 1.333,0.86 1.202,1.88 2.126,3.93 3.035,5.968 0.714,1.603 3.243,3.902 1.826,4.939 -4.278,3.129 -10.163,3.034 -15.156,4.811 -0.51,0.182 -0.721,0.938 -1.254,1.031 -0.383,0.067 -0.603,-0.525 -0.974,-0.642 -0.335,-0.106 -0.722,-0.115 -1.054,0 -0.37,0.129 -0.559,0.64 -0.947,0.695 -1.878,0.269 -3.834,-0.158 -5.685,0.254 -0.749,0.166 -1.081,1.193 -1.815,1.414 -0.522,0.158 -1.048,-0.454 -1.589,-0.386 -2.998,0.376 -5.883,1.604 -8.902,1.705 -0.483,0.016 -0.534,-0.933 -0.391,-1.394 0.33,-1.07 1.272,-1.86 1.712,-2.89 0.142,-0.332 0.165,-0.77 -0.014,-1.084 -0.378,-0.663 -0.829,-1.454 -1.559,-1.675 -2.924,-0.887 -7.84,1.272 -9.037,-1.54 -1.566,-3.678 1.883,-7.814 3.498,-11.47 0.408,-0.923 1.691,-1.131 2.389,-1.86 0.676,-0.706 1.588,-1.426 1.689,-2.398 0.066,-0.628 -0.722,-1.118 -1.296,-1.379 -0.615,-0.28 -1.35,-0.2 -2.022,-0.133 -0.518,0.052 -1.033,0.225 -1.486,0.482 -0.782,0.442 -1.539,0.956 -2.176,1.59 -0.477,0.476 -0.81,1.086 -1.114,1.688 -0.602,1.189 -1.241,2.381 -1.594,3.665 -0.184,0.67 -0.134,1.406 0.014,2.085 0.083,0.382 0.794,0.611 0.651,0.975 -0.631,1.607 -1.328,3.415 -2.757,4.385 -0.746,0.507 -1.741,-1.017 -2.601,-0.747 -3.486,1.097 -6.483,3.421 -9.913,4.684 -0.376,0.138 -0.6,-0.663 -1.001,-0.666 -0.708,-0.006 -1.318,0.644 -2.027,0.642 -0.391,-10e-4 -0.596,-0.553 -0.974,-0.652 -0.654,-0.17 -1.353,-0.223 -2.022,-0.131 -1.038,0.143 -1.985,0.779 -3.031,0.827 -0.388,0.018 -0.585,-0.634 -0.973,-0.642 -0.388,-0.009 -0.612,0.622 -1,0.598 -0.716,-0.044 -1.289,-0.722 -2.004,-0.784 -2.337,-0.202 -4.731,-0.423 -7.039,0.003 -0.901,0.166 -1.249,1.662 -2.165,1.693 -0.785,0.026 -1.092,-1.157 -1.766,-1.562 -0.295,-0.178 -0.689,-0.191 -1.026,-0.118 -0.698,0.15 -1.287,0.728 -2,0.768 -0.388,0.022 -0.612,-0.598 -1,-0.598 -0.389,0 -0.612,0.607 -1,0.598 -0.388,-0.008 -0.602,-0.525 -0.973,-0.642 -0.335,-0.106 -0.719,-0.106 -1.054,0 -0.371,0.117 -0.585,0.634 -0.973,0.642 -0.39,0.009 -0.653,-0.767 -1.006,-0.599 -0.418,0.198 -0.478,0.841 -0.478,1.304 0,1.11 -0.057,2.324 0.478,3.296 0.189,0.342 0.616,-0.606 1.006,-0.599 0.405,0.006 0.638,0.701 1.037,0.632 1.708,-0.296 3.218,-1.37 4.926,-1.666 0.399,-0.069 0.632,0.626 1.037,0.632 0.388,0.007 0.612,-0.622 1,-0.598 0.716,0.044 1.292,0.692 2.003,0.784 1.001,0.13 2.033,0.062 3.023,-0.132 0.383,-0.076 0.583,-0.65 0.974,-0.652 0.388,-0.002 0.584,0.642 0.973,0.642 0.709,0 1.318,-0.632 2.027,-0.642 0.388,-0.006 0.611,0.598 1,0.598 0.389,0 0.612,-0.609 1,-0.598 0.391,0.01 0.588,0.591 0.974,0.652 1.325,0.207 2.684,0.218 4.022,0.131 0.462,-0.03 1.113,-0.057 1.304,-0.478 0.162,-0.356 -0.591,-0.592 -0.643,-0.979 -0.06,-0.452 -0.091,-1.485 0.338,-1.328 1.489,0.547 2.338,2.262 3.811,2.849 2.61,1.04 5.435,1.446 8.201,1.937 0.675,0.12 1.383,0.024 2.055,-0.116 2.315,-0.48 4.529,-1.451 6.876,-1.738 2.346,-0.288 4.765,-0.397 7.09,0.026 0.466,0.085 0.411,0.875 0.456,1.347 0.148,1.536 -0.544,3.235 0.118,4.629 0.619,1.302 1.988,2.302 3.37,2.709 1.005,0.296 1.991,-0.707 3.031,-0.827 1.002,-0.115 2.033,-0.062 3.023,0.132 0.383,0.076 0.583,0.642 0.974,0.652 0.389,0.011 0.618,-0.658 1.003,-0.597 0.329,0.052 0.265,0.653 0.54,0.841 0.993,0.679 2.24,0.955 3.18,1.704 1.498,1.193 2.8,2.622 4.062,4.063 1.098,1.254 2.02,2.651 3,4 0.876,1.206 1.927,2.316 2.566,3.664 0.29,0.61 0.202,1.35 0.132,2.022 -0.05,0.485 -0.171,1.005 -0.484,1.379 -1.467,1.759 -3.366,3.135 -4.784,4.935 -1.266,1.607 -2.219,3.44 -3.22,5.224 -0.692,1.234 -1.413,2.474 -1.851,3.82 -1.051,3.23 -1.622,6.601 -2.6,9.855 -0.169,0.56 -0.276,1.351 -0.827,1.548 -3.381,1.208 -6.994,1.624 -10.478,2.49 -0.31,0.077 -0.651,0.132 -0.897,0.336 -0.582,0.483 -0.774,1.64 -1.53,1.678 -0.967,0.047 -1.718,-0.909 -2.501,-1.479 -0.267,-0.195 -0.722,-0.473 -0.609,-0.784 0.297,-0.818 1.641,-1.166 1.633,-2.036 -0.018,-2.047 -1.254,-3.903 -1.704,-5.901 -0.2,-0.888 0.075,-1.865 -0.237,-2.72 -0.263,-0.722 -1.075,-1.131 -1.416,-1.819 -0.147,-0.298 0.181,-0.703 0.023,-0.995 -1.301,-2.407 -2.747,-4.742 -4.329,-6.974 -0.863,-1.217 -1.877,-2.335 -2.982,-3.338 -1.236,-1.122 -2.575,-2.145 -4.006,-3.003 -2.705,-1.624 -5.691,-2.754 -8.368,-4.424 -0.692,-0.431 -1.75,-1.008 -1.639,-1.816 0.243,-1.75 1.373,-3.324 2.534,-4.656 1.424,-1.634 3.121,-3.123 5.071,-4.069 3.391,-1.646 6.98,-3.147 10.722,-3.596 1.73,-0.208 3.243,1.306 4.936,1.716 0.676,0.164 1.439,0.239 2.086,-0.016 0.579,-0.228 1.015,-0.779 1.316,-1.324 0.17,-0.307 0.177,-0.751 0,-1.054 -0.396,-0.681 -0.951,-1.302 -1.617,-1.722 -1.129,-0.714 -2.359,-1.345 -3.666,-1.617 -1.345,-0.279 -2.775,-0.28 -4.12,-0.003 -2.527,0.522 -4.996,1.358 -7.366,2.375 -0.665,0.286 -1.194,0.87 -1.595,1.472 -0.158,0.237 0.331,0.835 0.047,0.852 -1.04,0.062 -2.031,-0.878 -3.053,-0.672 -1.042,0.21 -1.605,1.502 -2.621,1.818 -3.016,0.939 -6.14,1.626 -9.288,1.89 -1.057,0.089 -2.01,-0.757 -3.067,-0.851 -1.668,-0.148 -3.361,-0.085 -5.022,0.132 -0.387,0.051 -0.583,0.648 -0.974,0.652 -0.403,0.005 -0.641,-0.717 -1.034,-0.628 -1.15,0.261 -2.277,0.804 -3.165,1.581 -0.226,0.198 0.443,0.457 0.496,0.754 0.027,0.15 -0.161,0.409 -0.301,0.347 -1.066,-0.479 -1.833,-1.68 -2.992,-1.826 -0.772,-0.097 -1.226,1.2 -2.004,1.198 -0.767,-0.001 -1.204,-1.072 -1.96,-1.207 -1.344,-0.242 -2.772,-0.221 -4.094,0.12 -1.088,0.28 -1.812,1.489 -2.917,1.685 -0.718,0.127 -1.305,-0.759 -2.033,-0.808 -3.323,-0.223 -6.669,-0.217 -9.992,0 -0.716,0.047 -1.287,0.784 -2.004,0.784 -0.717,0 -1.291,-0.704 -2.004,-0.784 -1.653,-0.185 -3.329,-0.08 -4.99,-10e-4 -0.448,0.022 -0.917,0.088 -1.311,0.303 -0.761,0.415 -1.571,0.856 -2.088,1.552 -0.251,0.338 -0.259,0.93 0,1.262 0.597,0.764 1.435,1.378 2.339,1.73 0.646,0.252 1.402,0.138 2.08,-0.009 0.382,-0.082 0.583,-0.641 0.974,-0.651 0.388,-0.011 0.611,0.598 1,0.598 0.389,0 0.611,-0.598 1,-0.598 0.389,0 0.611,0.598 1,0.598 0.389,0 0.612,-0.62 1,-0.598 0.712,0.04 1.287,0.838 1.997,0.769 3.028,-0.295 5.915,-1.514 8.94,-1.836 0.719,-0.076 1.341,0.65 2.063,0.665 0.388,0.009 0.612,-0.607 1,-0.598 0.388,0.008 0.584,0.642 0.973,0.642 0.709,0 1.318,-0.632 2.027,-0.642 0.388,-0.006 0.611,0.598 1,0.598 0.389,0 0.611,-0.598 1,-0.598 0.389,0 0.611,0.598 1,0.598 0.389,0 0.612,-0.609 1,-0.598 0.391,0.01 0.596,0.553 0.974,0.651 0.653,0.171 1.371,0.319 2.02,0.133 1.398,-0.402 2.561,-1.424 3.952,-1.847 0.663,-0.202 1.405,-0.147 2.08,0.01 0.381,0.089 0.577,0.566 0.947,0.695 0.332,0.115 0.719,0.106 1.054,0 0.371,-0.117 0.585,-0.634 0.973,-0.642 0.388,-0.009 0.612,0.607 1,0.598 0.388,-0.008 0.601,-0.522 0.97,-0.641 0.347,-0.112 0.735,-0.091 1.093,-0.025 3.137,0.578 6.396,0.794 9.369,1.951 0.495,0.193 -0.646,0.876 -0.784,1.39 -0.175,0.651 -0.309,1.369 -0.133,2.02 0.353,1.299 0.799,2.653 1.677,3.672 1.186,1.377 2.788,2.354 4.334,3.309 2.06,1.272 4.171,2.517 6.445,3.348 0.376,0.137 0.627,-0.618 1.027,-0.621 0.331,-0.002 0.584,0.346 0.784,0.609 0.639,0.839 1.022,1.861 1.707,2.663 0.26,0.304 0.843,0.233 1.056,0.573 2.106,3.365 4.136,6.798 5.811,10.398 0.201,0.431 0.128,1.251 -0.327,1.39 -0.674,0.206 -1.297,-0.671 -2.002,-0.678 -0.709,-0.006 -1.318,0.642 -2.027,0.642 -0.389,0 -0.602,-0.525 -0.973,-0.642 -0.335,-0.106 -0.719,-0.106 -1.054,0 -0.371,0.117 -0.584,0.642 -0.973,0.642 -0.388,0 -0.601,-0.523 -0.971,-0.641 -0.346,-0.112 -0.737,-0.107 -1.091,-0.022 -1.99,0.477 -3.875,1.403 -5.899,1.699 -0.404,0.059 -0.611,-0.619 -1.013,-0.688 -1.014,-0.173 -2.079,-0.225 -3.087,-0.015 -1.619,0.338 -3.176,0.959 -4.685,1.636 -0.494,0.222 -0.722,1.133 -1.254,1.031 -0.842,-0.161 -1.236,-1.212 -1.974,-1.65 -0.297,-0.177 -0.683,-0.126 -1.03,-0.134 -1.663,-0.037 -3.339,-0.185 -4.993,0 -0.712,0.08 -1.286,0.782 -2.003,0.784 -0.713,0.003 -1.285,-0.822 -1.997,-0.769 -4.021,0.3 -7.944,1.461 -11.961,1.81 -0.406,0.035 -0.627,-0.553 -1.012,-0.682 -0.346,-0.116 -0.739,-0.112 -1.093,-0.023 -2.157,0.544 -4.571,0.636 -6.394,1.911 -0.679,0.475 -0.255,1.741 0.114,2.482 0.21,0.421 0.874,0.486 1.343,0.441 0.711,-0.07 1.286,-0.771 2,-0.768 0.717,0.003 1.291,0.706 2.003,0.784 1.343,0.147 2.744,0.216 4.051,-0.123 1.087,-0.282 1.83,-1.405 2.917,-1.685 0.391,-0.1 0.608,0.596 1.003,0.676 0.856,0.172 1.814,0.389 2.621,0.054 0.685,-0.285 0.663,-1.744 1.405,-1.727 0.884,0.02 1.129,1.463 1.946,1.803 0.642,0.266 1.41,0.052 2.08,-0.131 0.378,-0.103 0.555,-0.688 0.947,-0.695 0.709,-0.012 1.336,0.799 2.027,0.642 0.762,-0.173 1.012,-1.525 1.793,-1.51 0.915,0.017 1.326,1.602 2.241,1.585 1.428,-0.028 2.533,-1.414 3.932,-1.703 0.397,-0.082 0.61,0.601 1.008,0.682 0.988,0.199 2.022,0.262 3.022,0.132 0.712,-0.092 1.288,-0.746 2.004,-0.784 0.4,-0.022 0.641,0.722 1.029,0.622 1.088,-0.281 1.834,-1.458 2.942,-1.646 0.729,-0.124 1.337,0.87 2.072,0.794 0.769,-0.08 1.209,-1.115 1.975,-1.215 0.545,-0.072 0.935,0.604 1.461,0.764 0.817,0.249 1.67,0.516 2.521,0.449 0.729,-0.057 1.315,-0.898 2.04,-0.806 2.211,0.282 4.583,0.616 6.417,1.883 0.681,0.471 0.066,1.67 -0.105,2.48 -0.148,0.7 -0.737,1.269 -0.837,1.977 -0.14,0.998 -0.047,2.029 0.133,3.02 0.053,0.29 0.808,0.565 0.544,0.698 -1.609,0.807 -3.374,1.34 -5.153,1.614 -0.413,0.063 -0.662,-0.758 -1.068,-0.658 -1.091,0.269 -1.835,1.456 -2.942,1.646 -0.716,0.123 -1.303,-0.788 -2.029,-0.792 -0.714,-0.004 -1.286,0.738 -2,0.768 -0.388,0.017 -0.584,-0.642 -0.973,-0.642 -0.709,0 -1.318,0.644 -2.027,0.642 -0.39,-10e-4 -0.595,-0.551 -0.972,-0.65 -0.54,-0.142 -1.167,-0.278 -1.675,-0.046 -0.899,0.412 -1.383,1.513 -2.306,1.868 -0.444,0.17 -1.132,-0.041 -1.348,-0.465 -0.177,-0.349 0.51,-0.629 0.599,-1.01 0.032,-0.135 -0.159,-0.326 -0.294,-0.295 -0.379,0.089 -0.615,0.607 -1.004,0.598 -0.388,-0.008 -0.601,-0.523 -0.971,-0.641 -0.346,-0.112 -0.746,-0.138 -1.09,-0.021 -1.491,0.508 -3.183,0.8 -4.34,1.868 -0.404,0.374 0.678,0.945 0.7,1.495 0.016,0.389 -0.873,0.729 -0.598,1.004 0.315,0.314 0.86,-0.371 1.299,-0.303 0.386,0.059 0.596,0.553 0.974,0.651 0.653,0.171 1.355,0.24 2.022,0.132 0.708,-0.115 1.288,-0.752 2.004,-0.783 0.39,-0.017 0.588,0.592 0.974,0.651 1.341,0.208 2.753,0.46 4.069,0.13 0.889,-0.222 1.278,-1.469 2.166,-1.693 0.622,-0.156 1.155,0.65 1.794,0.696 2.658,0.189 5.338,0.22 7.993,0 0.712,-0.059 1.263,-0.828 1.977,-0.828 1.047,0 1.993,0.684 3.031,0.827 0.669,0.092 1.368,0.039 2.022,-0.132 0.378,-0.098 0.583,-0.641 0.974,-0.651 0.388,-0.011 0.611,0.598 1,0.598 0.388,0 0.612,-0.609 1,-0.598 0.391,0.01 0.588,0.589 0.974,0.651 1.004,0.163 2.08,0.301 3.052,-10e-4 0.608,-0.188 0.983,-0.833 1.339,-1.36 0.116,-0.172 0.143,-0.471 0,-0.622 -0.683,-0.725 -1.669,-1.123 -2.34,-1.86 -0.271,-0.297 -0.614,-0.806 -0.39,-1.14 0.535,-0.8 1.446,-1.307 2.31,-1.73 0.518,-0.254 1.212,0.042 1.715,-0.243 0.647,-0.367 0.876,-1.291 1.55,-1.607 0.284,-0.133 0.479,0.525 0.792,0.509 0.387,-0.019 0.61,-0.598 0.998,-0.597 0.389,0 0.611,0.598 1,0.598 0.389,0 0.612,-0.605 1,-0.598 0.405,0.006 0.646,0.734 1.037,0.632 2.35,-0.615 5.01,-1.011 6.776,-2.678 1.434,-1.353 1.436,-3.68 1.969,-5.578 0.671,-2.394 0.847,-4.92 1.638,-7.277 0.622,-1.852 1.658,-3.539 2.574,-5.264 1.03,-1.942 1.986,-3.94 3.26,-5.73 0.129,-0.181 0.34,0.508 0.534,0.399 0.746,-0.42 1.309,-1.112 1.875,-1.755 0.96,-1.088 2.049,-2.121 2.688,-3.424 0.305,-0.622 0.273,-1.438 0.011,-2.08 -0.951,-2.324 -2.253,-4.495 -3.574,-6.63 -0.877,-1.42 -1.901,-2.753 -3.003,-4.006 -1.342,-1.526 -2.674,-3.105 -4.31,-4.31 -0.342,-0.252 -0.911,0.453 -1.259,0.208 -0.726,-0.512 -1.184,-1.362 -1.536,-2.178 -0.087,-0.201 0.144,-0.501 0.358,-0.552 4.061,-0.966 8.242,-1.396 12.28,-2.456 4.619,-1.212 8.912,-3.745 13.649,-4.351 1.095,-0.14 1.775,1.379 2.384,2.3 0.313,0.475 -0.031,1.195 0.253,1.688 0.371,0.645 1.347,0.852 1.607,1.549 0.126,0.338 -0.411,0.633 -0.733,0.796 -0.458,0.232 -1.093,0.646 -1.503,0.337 -1.259,-0.948 -1.684,-2.756 -2.951,-3.691 -0.549,-0.406 -1.384,-0.159 -2.048,0 -0.331,0.079 -0.608,0.373 -0.768,0.674 -1.672,3.161 -2.805,6.611 -4.695,9.647 -0.279,0.449 -1.016,0.44 -1.54,0.372 -0.388,-0.051 -0.57,-0.589 -0.947,-0.695 -0.651,-0.184 -1.351,-0.196 -2.026,-0.146 -0.794,0.059 -1.834,-0.142 -2.343,0.47 -0.53,0.638 -0.767,1.976 -0.113,2.486 1.561,1.216 3.873,0.952 5.647,1.827 0.263,0.13 -0.472,0.408 -0.542,0.692 -0.163,0.655 -0.244,1.354 -0.133,2.019 0.12,0.719 0.934,1.315 0.807,2.033 -0.196,1.105 -1.41,1.828 -1.685,2.917 -0.377,1.488 0.526,3.256 -0.216,4.6 -0.629,1.137 -2.336,1.165 -3.389,1.926 -0.561,0.406 -1.022,0.956 -1.398,1.537 -0.113,0.174 -0.146,0.474 0,0.622 0.674,0.685 1.366,1.545 2.31,1.725 1.035,0.197 2.065,-0.97 3.082,-0.698 1.008,0.269 1.424,1.549 2.289,2.131 1.467,0.985 2.977,1.982 4.656,2.534 0.396,0.13 0.654,-0.727 1.065,-0.655 1.461,0.254 3.337,0.335 4.165,1.565 0.537,0.798 -1.984,-0.021 -2.861,0.373 -0.679,0.304 -0.872,1.299 -1.55,1.605 -0.289,0.13 -0.453,-0.517 -0.767,-0.563 -1.326,-0.193 -2.687,-0.293 -4.017,-0.134 -3.293,0.392 -6.615,0.813 -9.787,1.78 -0.731,0.222 -1.183,1.015 -1.562,1.679 -0.175,0.305 -0.17,0.747 0,1.054 0.301,0.545 0.745,1.076 1.316,1.324 0.619,0.271 1.35,0.2 2.022,0.133 0.518,-0.052 1.038,-0.216 1.486,-0.482 0.573,-0.34 0.875,-1.122 1.517,-1.301 0.375,-0.105 0.612,0.598 1.001,0.598 0.388,0 0.612,-0.609 1,-0.598 0.391,0.01 0.596,0.552 0.974,0.651 0.652,0.171 1.359,0.272 2.019,0.133 2.036,-0.429 3.919,-1.471 5.97,-1.818 0.399,-0.067 0.67,0.802 1.037,0.632 1.3,-0.6 2.558,-1.486 3.366,-2.668 0.287,-0.42 -0.817,-0.968 -0.574,-1.415 0.425,-0.782 1.306,-1.375 2.18,-1.538 0.572,-0.106 1.212,0.358 1.523,0.849 0.865,1.361 2.026,2.865 1.854,4.469 -0.437,4.062 -2.123,7.906 -3.593,11.718 -0.267,0.692 -1.129,0.988 -1.545,1.602 -1.004,1.485 -1.557,3.266 -2.689,4.656 -1.732,2.129 -3.778,3.992 -5.832,5.813 -1.462,1.296 -2.951,2.623 -4.689,3.514 -0.346,0.178 -0.613,-0.609 -1.001,-0.598 -0.391,0.01 -0.596,0.553 -0.974,0.651 -0.654,0.171 -1.356,0.241 -2.022,0.132 -1.037,-0.17 -1.954,-0.914 -3.004,-0.953 -0.714,-0.027 -1.287,0.728 -2,0.768 -0.388,0.022 -0.612,-0.604 -1,-0.598 -0.404,0.005 -0.639,0.708 -1.034,0.628 -1.312,-0.264 -2.508,-0.953 -3.691,-1.579 -0.485,-0.257 -0.742,-0.903 -1.272,-1.048 -0.29,-0.079 -0.551,0.72 -0.751,0.497 -0.786,-0.877 -1.272,-2.015 -1.617,-3.141 -0.204,-0.664 -0.157,-1.41 0.013,-2.084 0.145,-0.57 0.414,-1.185 0.899,-1.519 1.672,-1.151 3.423,-2.351 5.399,-2.817 2.169,-0.512 4.552,-0.675 6.687,-0.036 1.151,0.345 1.323,2.104 2.342,2.739 0.437,0.273 1.062,-0.078 1.506,-0.339 0.532,-0.312 0.978,-0.789 1.304,-1.312 0.647,-1.04 1.762,-2.108 1.579,-3.319 -0.143,-0.951 -1.419,-1.401 -2.336,-1.693 -0.381,-0.122 -0.627,0.625 -1.028,0.621 -0.389,-0.004 -0.602,-0.525 -0.973,-0.642 -0.335,-0.106 -0.72,-0.108 -1.054,0 -0.382,0.123 -0.613,0.764 -1.002,0.666 -1.105,-0.279 -1.847,-1.752 -2.984,-1.67 -2.985,0.214 -5.796,1.518 -8.621,2.504 -0.845,0.295 -1.641,0.76 -2.339,1.321 -1.023,0.824 -2.045,1.706 -2.776,2.797 -0.753,1.122 -1.746,2.382 -1.598,3.725 0.24,2.167 2.273,3.828 2.669,5.972 0.113,0.614 -0.723,1.151 -1.321,1.327 -0.375,0.11 -0.597,-0.553 -0.975,-0.652 -0.654,-0.17 -1.356,-0.242 -2.022,-0.131 -1.039,0.173 -1.958,0.879 -3.008,0.969 -3.207,0.276 -6.465,-0.307 -9.655,0.121 -0.76,0.102 -1.088,1.165 -1.812,1.417 -0.375,0.13 -0.769,-0.579 -1.122,-0.398 -0.654,0.337 -0.672,1.699 -1.407,1.699 -0.87,10e-4 -1.16,-1.415 -1.983,-1.696 -0.384,-0.131 -0.611,0.657 -1.017,0.671 -0.388,0.014 -0.611,-0.598 -1,-0.598 -0.389,0 -0.612,0.609 -1,0.598 -0.391,-0.01 -0.588,-0.589 -0.974,-0.652 -1.013,-0.165 -2.091,-0.286 -3.08,-0.009 -1.082,0.302 -1.831,1.402 -2.917,1.685 -0.388,0.101 -0.601,-0.663 -1.002,-0.666 -0.708,-0.006 -1.318,0.644 -2.027,0.642 -0.391,-10e-4 -0.591,-0.576 -0.974,-0.652 -0.99,-0.194 -2.022,-0.262 -3.023,-0.132 -0.711,0.092 -1.287,0.75 -2.003,0.784 -0.387,0.019 -0.601,-0.523 -0.971,-0.641 -0.346,-0.112 -0.737,-0.107 -1.091,-0.022 -1.99,0.477 -3.877,1.389 -5.899,1.699 -0.401,0.062 -0.633,-0.627 -1.039,-0.634 -0.388,-0.007 -0.612,0.61 -1,0.598 -0.573,-0.017 -1.049,-0.894 -1.58,-0.677 -0.792,0.322 -0.851,1.621 -1.625,1.984 -0.427,0.201 -0.8,-0.581 -1.27,-0.624 -0.529,-0.05 -1.025,0.429 -1.552,0.361 -0.386,-0.05 -0.577,-0.559 -0.944,-0.685 -0.342,-0.118 -0.751,-0.154 -1.084,-0.014 -0.943,0.395 -1.8,0.981 -2.635,1.573 -0.271,0.193 -0.606,0.428 -0.651,0.758 -0.071,0.509 0.089,1.055 0.338,1.505 0.212,0.382 0.563,0.733 0.977,0.871 0.639,0.215 1.352,0.235 2.019,0.134 3.545,-0.537 7.218,-0.744 10.561,-2.039 0.984,-0.382 0.661,-2.36 1.662,-2.697 0.781,-0.263 1.539,0.778 1.992,1.467 0.172,0.262 -0.444,0.485 -0.507,0.791 -0.029,0.141 0.133,0.31 0.275,0.331 0.996,0.145 2.017,0.268 3.017,0.148 3.679,-0.441 7.277,-1.473 10.966,-1.825 0.405,-0.039 0.606,0.677 1.014,0.682 0.708,0.009 1.318,-0.632 2.027,-0.642 0.388,-0.006 0.611,0.598 1,0.598 0.389,0 0.612,-0.604 1,-0.598 0.404,0.005 0.639,0.71 1.034,0.628 1.393,-0.289 2.524,-1.455 3.932,-1.658 0.721,-0.104 1.306,0.793 2.034,0.798 0.714,0.005 1.287,-0.728 2,-0.768 0.388,-0.022 0.611,0.598 1,0.598 0.389,0 0.612,-0.606 1,-0.598 0.408,0.008 0.636,0.669 1.042,0.64 4.672,-0.331 9.313,-1.016 13.946,-1.704 1.68,-0.249 3.359,-0.576 4.973,-1.102 0.439,-0.143 0.622,-0.947 1.077,-0.87 3.129,0.528 7.711,-0.226 9.158,2.599 1.083,2.115 -3.568,3.154 -5.511,4.523 -1.043,0.735 -2.175,1.401 -3.401,1.756 -5.367,1.553 -10.821,2.804 -16.291,3.942 -0.66,0.137 -1.369,0.048 -2.019,-0.133 -0.377,-0.105 -0.555,-0.694 -0.947,-0.695 -1.043,-0.002 -2.011,0.688 -3.054,0.686 -0.392,-10e-4 -0.561,-0.631 -0.947,-0.695 -1.323,-0.221 -2.708,-0.409 -4.02,-0.134 -1.426,0.299 -2.541,1.57 -3.977,1.809 -0.719,0.12 -1.305,-0.759 -2.033,-0.808 -3.323,-0.223 -6.669,-0.217 -9.993,0 -0.715,0.047 -1.287,0.74 -2.003,0.784 -0.389,0.024 -0.729,-0.874 -1.004,-0.598 -0.315,0.316 0.474,0.891 0.303,1.303 -0.135,0.323 -0.641,0.375 -0.991,0.353 -0.768,-0.048 -1.533,-0.252 -2.24,-0.555 -0.733,-0.314 -1.233,-1.175 -2.024,-1.273 -0.723,-0.089 -1.317,0.742 -2.044,0.77 -0.39,0.015 -0.596,-0.551 -0.974,-0.652 -0.654,-0.173 -1.353,-0.222 -2.026,-0.145 -1.362,0.156 -2.656,0.8 -4.027,0.841 -0.391,0.011 -0.57,-0.59 -0.947,-0.695 -0.651,-0.181 -1.35,-0.199 -2.022,-0.132 -0.518,0.052 -1.047,0.2 -1.484,0.481 -0.362,0.233 -0.744,0.576 -0.818,1 -0.054,0.307 0.687,0.533 0.506,0.787 m -28.556,-19.713 c 0,0 0,0 0,0 -0.102,-0.698 0.125,-1.536 -0.306,-2.094 -1.262,-1.632 -3.252,-2.592 -4.554,-4.193 -0.196,-0.241 0.46,-0.477 0.504,-0.784 0.029,-0.197 -0.171,-0.37 -0.32,-0.502 -0.693,-0.613 -1.668,-0.946 -2.184,-1.714 -0.174,-0.259 0.657,-0.514 0.506,-0.787 -0.738,-1.331 -2.166,-2.194 -2.899,-3.528 -1.801,-3.273 -2.988,-6.852 -4.653,-10.197 -0.904,-1.817 -2.308,-3.381 -3.045,-5.271 -0.142,-0.362 0.598,-0.612 0.598,-1.001 0.001,-0.388 -0.579,-0.611 -0.597,-0.998 -0.015,-0.32 0.588,-0.5 0.515,-0.813 -0.116,-0.5 -0.941,-0.677 -0.979,-1.189 -0.041,-0.555 0.704,-0.924 0.781,-1.475 0.073,-0.525 -0.363,-1.019 -0.36,-1.549 0.001,-0.206 0.184,-0.41 0.373,-0.493 1.533,-0.677 3.195,-1.043 4.714,-1.751 0.49,-0.229 0.721,-0.938 1.253,-1.031 0.398,-0.07 0.64,0.71 1.035,0.628 1.393,-0.289 2.539,-1.369 3.932,-1.658 0.395,-0.082 0.631,0.634 1.034,0.628 0.587,-0.008 1.108,-0.931 1.631,-0.664 0.868,0.443 1.805,1.401 1.711,2.372 -0.269,2.781 -2.098,5.206 -2.71,7.932 -0.298,1.33 -0.162,2.737 0.015,4.087 0.051,0.387 0.668,0.584 0.652,0.974 -0.028,0.713 -0.834,1.286 -0.769,1.997 0.291,3.17 1.081,6.279 1.813,9.378 0.526,2.224 1.15,4.433 1.955,6.572 0.533,1.418 1.969,2.546 2.044,4.059 m 21.903,1.215 c 0,0 0,0 0,0 1.564,-0.528 3.056,-1.373 4.694,-1.584 0.713,-0.092 1.323,0.617 2.035,0.715 1.007,0.139 2.14,0.438 3.05,-0.014 0.412,-0.205 -0.317,-0.882 -0.323,-1.341 -0.002,-0.154 0.164,-0.416 0.302,-0.349 0.811,0.393 1.304,1.551 2.204,1.563 0.782,0.01 1.05,-1.269 1.792,-1.51 0.372,-0.121 0.654,0.767 1.007,0.599 0.418,-0.198 0.43,-0.843 0.477,-1.304 0.068,-0.673 0.208,-1.444 -0.14,-2.024 -0.244,-0.406 -0.875,-0.41 -1.347,-0.455 -0.672,-0.065 -1.401,-0.135 -2.022,0.131 -1.04,0.446 -1.659,1.893 -2.79,1.934 -0.771,0.028 -0.71,-1.748 -1.482,-1.779 -1.635,-0.066 -3.037,1.357 -4.665,1.53 -0.729,0.077 -1.313,-0.734 -2.041,-0.818 -1.344,-0.154 -2.73,-0.149 -4.057,0.117 -1.621,0.326 -3.224,0.86 -4.685,1.636 -0.687,0.366 -1.206,1.031 -1.596,1.705 -0.176,0.304 -0.17,0.747 0,1.054 0.3,0.542 0.771,1.014 1.312,1.314 0.319,0.177 0.738,0.108 1.092,0.023 1.99,-0.477 3.878,-1.377 5.899,-1.699 m 48.715,25.343 c 0,0 0,0 0,0 0.218,-0.013 0.603,-0.251 0.656,-0.039 0.112,0.444 0.125,1.306 -0.332,1.333 m 1.538,-33.275 c 0,0 0,0 0,0 0.143,-0.455 0.014,-1.13 0.428,-1.364 0.407,-0.229 1.385,-0.109 1.356,0.357 -0.054,0.887 -0.738,1.758 -1.511,2.194 m -84.101,-4.187 c 0,0 0,0 0,0 0.437,-0.12 0.858,-0.351 1.31,-0.359 0.146,-0.002 0.405,0.255 0.282,0.332 -0.387,0.245 -0.875,0.325 -1.332,0.332 m 0.375,-64.33 c 0,0 0,0 0,0 -0.216,-0.334 -0.725,-0.61 -0.648,-1 0.072,-0.368 0.708,-0.309 0.96,-0.588 0.459,-0.509 0.847,-1.095 1.124,-1.722 0.925,-2.096 1.324,-4.429 2.468,-6.413 0.748,-1.298 2.258,-2.013 3.102,-3.25 0.315,-0.463 -0.104,-1.227 0.249,-1.662 0.86,-1.061 1.831,-2.407 3.187,-2.576 0.829,-0.103 0.766,1.637 1.523,1.991 4.655,2.178 9.707,3.408 14.415,5.469 0.637,0.279 1.966,0.994 1.47,1.483 -1.234,1.215 -3.299,1.089 -4.855,1.849 -0.696,0.339 -1.166,1.036 -1.84,1.417 -0.104,0.06 -0.196,-0.278 -0.294,-0.208 -0.544,0.386 -0.79,1.173 -1.41,1.42 -0.294,0.117 -0.467,-0.461 -0.769,-0.554 -0.345,-0.106 -0.761,-0.179 -1.082,-0.014 -1.898,0.972 -3.698,2.135 -5.445,3.358 -0.363,0.254 -0.891,0.596 -0.833,1.035 0.22,1.643 0.931,3.192 1.601,4.709 0.19,0.43 1.293,0.736 0.943,1.049 -1.214,1.082 -2.909,1.463 -4.423,2.054 -3.216,1.256 -6.318,3.146 -9.754,3.48 -1.097,0.107 -1.739,-1.4 -2.375,-2.299 -0.211,-0.298 -0.108,-0.738 -0.023,-1.092 0.459,-1.922 0.922,-3.857 1.643,-5.697 0.196,-0.502 0.834,-0.73 1.066,-1.217 m 49.663,4.301 c 0,0 0,0 0,0 -0.004,-0.265 -0.151,-0.569 -0.013,-0.794 0.228,-0.372 0.601,-0.983 1.01,-0.832 0.428,0.159 0.568,0.94 0.329,1.329 m 4.953,79.95 c 0,0 0,0 0,0 -0.437,0.119 -0.926,0.597 -1.311,0.359 -0.396,-0.246 -0.468,-0.926 -0.306,-1.362 0.094,-0.251 0.576,-0.116 0.803,0.025 m -16.79,-78.959 c 0,0 0,0 0,0 0.105,-0.449 -0.147,-1.334 0.314,-1.346 0.456,-0.011 0.436,0.885 0.332,1.329 m 87.698,35.47 c 0,0 0,0 0,0 -0.447,-0.105 -0.934,-0.102 -1.34,-0.316 -0.693,-0.367 -1.482,-0.727 -1.895,-1.394 -0.166,-0.267 0.503,-0.45 0.56,-0.76 0.182,-0.991 0.269,-2.022 0.133,-3.021 -0.099,-0.727 -0.887,-1.312 -0.822,-2.043 0.218,-2.447 0.967,-4.823 1.644,-7.185 0.557,-1.946 1.696,-3.723 2.054,-5.716 0.127,-0.71 -0.714,-1.342 -0.659,-2.062 0.026,-0.338 0.648,-0.28 0.857,-0.546 0.645,-0.82 0.886,-1.954 1.66,-2.653 0.224,-0.203 0.137,0.627 0.357,0.834 0.713,0.67 1.459,1.373 2.37,1.73 0.81,0.317 1.928,-0.336 2.6,0.216 0.985,0.811 1.474,2.15 1.783,3.388 0.102,0.41 -0.707,0.655 -0.669,1.075 0.307,3.339 1.375,6.579 1.679,9.918 0.037,0.405 -0.552,0.626 -0.681,1.011 -0.116,0.346 -0.098,0.736 -0.023,1.093 0.487,2.317 1.609,4.531 1.702,6.898 0.025,0.649 -0.729,1.404 -1.378,1.378 M 391.527,424.79 c 0,0 0,0 0,0 -0.12,-0.437 -0.351,-0.858 -0.359,-1.31 -0.002,-0.146 0.255,-0.405 0.332,-0.282 0.245,0.387 0.325,0.875 0.332,1.332 m 31.622,41.469 c 0,0 0,0 0,0 0.569,-0.033 1.203,0.166 1.707,-0.1 0.659,-0.346 0.803,-1.599 1.547,-1.61 0.786,-0.011 1.094,1.155 1.766,1.562 0.296,0.18 0.683,0.134 1.03,0.134 1.341,0 2.697,0.075 4.022,-0.132 0.386,-0.061 0.584,-0.669 0.974,-0.652 0.716,0.032 1.292,0.692 2.003,0.784 1.001,0.129 2.033,0.062 3.023,-0.132 0.383,-0.076 0.584,-0.669 0.974,-0.652 0.716,0.032 1.289,0.722 2.003,0.784 2.323,0.202 4.671,0.202 6.993,0 0.715,-0.062 1.287,-0.781 2.004,-0.784 0.714,-0.003 1.286,0.768 2,0.768 0.714,0 1.286,-0.74 2,-0.768 0.39,-0.015 0.588,0.591 0.974,0.652 1.325,0.207 2.695,0.324 4.022,0.132 0.741,-0.107 1.479,-0.474 2.007,-1.004 0.365,-0.367 0.466,-0.964 0.466,-1.481 0,-0.517 -0.195,-1.04 -0.466,-1.481 -0.228,-0.369 -0.543,-0.829 -0.976,-0.861 -0.706,-0.052 -1.318,0.631 -2.027,0.641 -0.388,0.006 -0.612,-0.598 -1,-0.598 -0.389,0 -0.611,0.598 -1,0.598 -0.389,0 -0.611,-0.598 -1,-0.598 -0.389,0 -0.612,0.607 -1,0.598 -0.388,-0.008 -0.602,-0.525 -0.973,-0.642 -0.335,-0.106 -0.715,-0.092 -1.054,0 -0.689,0.189 -1.266,0.752 -1.977,0.828 -2,0.215 -4.048,-0.276 -6.036,0.033 -0.759,0.117 -1.193,1.207 -1.96,1.207 -0.767,0 -1.199,-1.105 -1.96,-1.207 -2.324,-0.313 -4.7,-0.215 -7.036,-0.003 -0.733,0.066 -1.312,0.869 -2.046,0.826 -4.328,-0.256 -8.567,-1.438 -12.895,-1.709 -1.055,-0.065 -2.033,0.732 -3.09,0.711 -0.711,-0.015 -1.269,-0.7 -1.971,-0.813 -0.44,-0.07 -0.914,0.075 -1.307,0.287 -0.763,0.412 -1.625,0.818 -2.091,1.55 -0.297,0.468 -0.184,1.158 0.047,1.661 0.26,0.567 0.726,1.143 1.323,1.323 0.974,0.295 2.048,0.164 3.052,10e-4 0.386,-0.062 0.584,-0.668 0.974,-0.651 0.716,0.032 1.291,0.702 2.003,0.784 m -3.011,-1.809 c 0,0 0,0 0,0 0.013,0.218 0.251,0.603 0.038,0.656 -0.444,0.112 -1.305,0.125 -1.332,-0.332 m 45.261,58.683 c 0,0 0,0 0,0 0.449,0.104 1.334,-0.147 1.346,0.314 0.011,0.456 -0.885,0.436 -1.329,0.332 m -20.652,-81.337 c 0,0 0,0 0,0 -0.218,0.013 -0.603,0.251 -0.656,0.038 -0.112,-0.444 -0.125,-1.305 0.332,-1.332 m -9.959,-30.381 c 0,0 0,0 0,0 -0.459,-0.095 -1.122,0.109 -1.376,-0.285 -0.249,-0.384 -0.098,-1.17 0.33,-1.333 0.405,-0.153 0.769,0.463 1.004,0.827 m 21.684,109.515 c 0,0 0,0 0,0 0.105,-0.449 -0.147,-1.334 0.314,-1.346 0.456,-0.011 0.436,0.885 0.332,1.329 M 406.527,403.79 c 0,0 0,0 0,0 -0.12,-0.437 -0.351,-0.858 -0.359,-1.31 -0.002,-0.146 0.255,-0.405 0.332,-0.282 0.245,0.387 0.325,0.875 0.332,1.332 m 73.718,-5.692 c 0,0 0,0 0,0 -1.016,0.048 -2.033,0.223 -3.047,0.146 -0.461,-0.036 -1.534,-0.078 -1.304,-0.479 1.184,-2.056 2.769,-3.951 4.67,-5.371 0.47,-0.351 1.044,0.684 1.631,0.665 0.717,-0.023 1.289,-0.729 2.004,-0.783 0.789,-0.06 1.86,-0.181 2.331,0.455 0.382,0.517 -0.163,1.398 -0.652,1.816 m 21.344,2.503 c 0,0 0,0 0,0 -0.12,-0.437 -0.351,-0.858 -0.359,-1.31 -0.002,-0.146 0.255,-0.405 0.332,-0.282 0.245,0.387 0.325,0.875 0.332,1.332 m -23.985,-14.498 c 0,0 0,0 0,0 -0.189,-0.411 -0.146,-1.068 -0.567,-1.235 -2.026,-0.805 -5.175,0.31 -6.363,-1.518 -0.867,-1.335 3.066,-1.378 4.639,-1.135 1.744,0.27 3.146,1.611 4.628,2.567 1.402,0.905 2.753,1.902 4.006,3.004 1.526,1.342 3.124,2.66 4.31,4.31 0.251,0.351 -0.002,0.956 -0.311,1.257 -0.693,0.675 -1.558,1.706 -2.498,1.477 -1.099,-0.267 -1.095,-2.249 -2.167,-2.61 -1.904,-0.641 -4.016,-0.144 -6.024,-0.148 -0.688,-10e-4 -1.426,-0.136 -2.059,0.133 -2.404,1.024 -4.461,2.795 -6.917,3.688 -0.353,0.129 -0.317,-0.704 -0.596,-0.956 -0.725,-0.654 -1.497,-1.287 -2.372,-1.721 -0.334,-0.166 -0.753,-0.08 -1.12,-0.011 -2.646,0.497 -5.22,1.4 -7.896,1.704 -0.406,0.046 -0.615,-0.6 -1.014,-0.69 -0.667,-0.15 -1.383,-0.144 -2.052,0 -0.382,0.082 -0.583,0.648 -0.974,0.651 -0.405,0.004 -0.638,-0.701 -1.037,-0.632 -1.708,0.296 -3.218,1.37 -4.926,1.666 -0.399,0.069 -0.632,-0.626 -1.037,-0.632 -0.388,-0.007 -0.612,0.606 -1,0.598 -0.407,-0.007 -0.637,-0.684 -1.041,-0.637 -2.68,0.311 -5.238,1.365 -7.918,1.676 -0.404,0.047 -0.634,-0.638 -1.041,-0.637 -0.389,10e-4 -0.584,0.63 -0.973,0.642 -0.635,0.02 -1.199,-0.676 -1.823,-0.555 -0.682,0.132 -1.055,0.933 -1.683,1.233 -0.479,0.23 -1.034,0.372 -1.563,0.319 -3.935,-0.391 -7.864,-0.902 -11.748,-1.644 -0.282,-0.054 -0.525,-0.411 -0.505,-0.698 0.022,-0.328 0.333,-0.595 0.606,-0.78 2.849,-1.932 5.347,-4.835 8.717,-5.541 1.828,-0.382 3.084,2.334 4.918,2.685 2.983,0.572 6.159,0.713 9.113,0.004 4.235,-1.018 7.909,-3.696 12.038,-5.084 4.537,-1.524 9.145,-3.018 13.892,-3.627 0.897,-0.115 1.691,0.827 2.219,1.561 0.182,0.253 -0.459,0.46 -0.55,0.759 -0.102,0.336 -0.17,0.746 0,1.052 0.301,0.545 0.737,1.096 1.316,1.324 0.636,0.25 1.383,0.145 2.052,10e-4 0.382,-0.082 0.583,-0.651 0.974,-0.651 0.391,0 0.592,0.568 0.974,0.651 0.679,0.148 1.426,0.236 2.084,0.013 m -33.98,-1.011 c 0,0 0,0 0,0 -1.361,0.377 -2.68,0.958 -4.082,1.131 -1.331,0.164 -2.728,0.22 -4.022,-0.134 -0.6,-0.163 -1.016,-0.778 -1.316,-1.324 -0.168,-0.307 -0.3,-0.891 0.012,-1.052 0.416,-0.214 0.92,0.511 1.358,0.348 1.751,-0.652 3.088,-2.31 4.918,-2.685 2.639,-0.541 5.422,-0.406 8.082,0.019 0.465,0.075 0.444,0.872 0.44,1.343 -0.004,0.46 -0.042,1.113 -0.462,1.3 -0.37,0.166 -0.644,-0.714 -1.04,-0.629 m 8.059,-3.164 c 0,0 0,0 0,0 -0.591,0.23 -1.252,1.051 -1.774,0.691 -0.937,-0.647 -0.716,-2.3 -1.6,-3.018 -1.478,-1.2 -4.426,-0.704 -5.153,-2.464 -0.486,-1.177 2.303,-1.122 3.528,-1.468 3.599,-1.017 7.245,-1.874 10.911,-2.612 0.439,-0.088 0.914,-0.006 1.335,0.147 2.854,1.036 5.682,2.153 8.449,3.405 0.882,0.399 3.385,1.223 2.468,1.534 m -34.216,-0.012 c 0,0 0,0 0,0 0.12,0.437 0.351,0.858 0.359,1.31 0.002,0.146 -0.255,0.405 -0.332,0.282 -0.245,-0.387 -0.325,-0.875 -0.332,-1.332 m -1.695,18.74 c 0,0 0,0 0,0 0.12,0.437 0.351,0.858 0.359,1.31 0.002,0.146 -0.255,0.405 -0.332,0.282 -0.245,-0.387 -0.325,-0.875 -0.332,-1.332 m -23.709,-1.287 c 0,0 0,0 0,0 0.449,0.105 1.334,-0.147 1.346,0.314 0.011,0.456 -0.885,0.436 -1.329,0.332 m 19.051,-14.039 c 0,0 0,0 0,0 -0.165,-0.428 -0.488,-0.825 -0.493,-1.283 -0.005,-0.463 0.003,-1.305 0.466,-1.309 0.461,-0.004 0.463,0.84 0.467,1.301 m -2.177,16.974 c 0,0 0,0 0,0 -0.437,0.12 -0.858,0.351 -1.31,0.359 -0.146,0.002 -0.405,-0.255 -0.282,-0.332 0.387,-0.245 0.875,-0.325 1.332,-0.332 m -18.003,0.622 c 0,0 0,0 0,0 -0.12,-0.437 -0.351,-0.858 -0.359,-1.31 -0.002,-0.146 0.255,-0.405 0.332,-0.282 0.245,0.387 0.325,0.875 0.332,1.332 m 81.641,-8.32 c 0,0 0,0 0,0 0.12,0.437 0.351,0.858 0.359,1.31 0.002,0.146 -0.255,0.405 -0.332,0.282 -0.245,-0.387 -0.325,-0.875 -0.332,-1.332 M 447.49,374.167 c 0,0 0,0 0,0 0.013,0.224 0.261,0.64 0.039,0.672 -0.777,0.113 -2.286,0.445 -2.331,-0.339 m -5.988,0.027 c 0,0 0,0 0,0 0.437,-0.12 0.858,-0.351 1.31,-0.359 0.146,-0.002 0.405,0.255 0.282,0.332 -0.387,0.245 -0.875,0.325 -1.332,0.332 m -26.287,18.709 c 0,0 0,0 0,0 0.105,-0.449 -0.147,-1.334 0.314,-1.346 0.456,-0.011 0.436,0.885 0.332,1.329 m 22.679,70.3 c 0,0 0,0 0,0 -0.013,-0.218 -0.251,-0.603 -0.038,-0.656 0.443,-0.112 1.305,-0.125 1.332,0.332"
         id="path6" />
    </g>
  </g>
</svg>
